<svg xmlns="http://www.w3.org/2000/svg" xmlns:xlink="http://www.w3.org/1999/xlink" id="Слой_1" x="0" y="0" version="1.1" viewBox="0 0 26 26" xml:space="preserve" style="enable-background:new 0 0 26 26"><style type="text/css">.st0,.st1{fill-rule:evenodd;clip-rule:evenodd;fill:#fff}.st1{fill:#f87c1d}</style><g><path d="M13,0c7.2,0,13,5.8,13,13s-5.8,13-13,13C5.8,26,0,20.2,0,13S5.8,0,13,0z" class="st0"/></g><path d="M13,2C6.9,2,2,6.9,2,13c0,6.1,4.9,11,11,11c6.1,0,11-4.9,11-11C24,6.9,19.1,2,13,2z M11.5,18l-4.2-4.3l1.4-1.4	l2.8,2.8l5.8-5.8l1.4,1.4L11.5,18z" class="st1"/></svg>