<svg xmlns="http://www.w3.org/2000/svg" xmlns:xlink="http://www.w3.org/1999/xlink" id="Слой_1" x="0" y="0" version="1.1" viewBox="0 0 16 16" xml:space="preserve" style="enable-background:new 0 0 16 16"><style type="text/css">.st0{fill:#999}.st0,.st1,.st2{fill-rule:evenodd;clip-rule:evenodd}.st1{fill:#217348}.st2{fill:#fff}</style><g><path d="M8,7h6v1H8V7z M8,9h6v1H8V9z M14,14H8v-1h6V14z M8,11h6v1H8V11z M3,16v-3h1v2h11V6h-5H8V5h2V4H8V3h2V1H4v3H3V0 h9l4,4v12H3z M11,1v4h4L11,1z" class="st0"/></g><g><path d="M0,13l7,1V3L0,4V13z" class="st1"/></g><g><path d="M6,11H4v-1H3v1H1l1.7-2.5L1,6h2v1h1V6h2L4.3,8.5L6,11z" class="st2"/></g></svg>