<svg xmlns="http://www.w3.org/2000/svg" xmlns:xlink="http://www.w3.org/1999/xlink" id="Слой_1" x="0" y="0" version="1.1" viewBox="0 0 16 16" xml:space="preserve" style="enable-background:new 0 0 16 16"><style type="text/css">.st0{fill:#999}.st1{fill:#a80000}.st2{fill:#fff}</style><g><path d="M8,7h6v1H8V7z M8,9h6v1H8V9z M14,14H8v-1h6V14z M8,11h6v1H8V11z M3,16v-3h1v2h11V6h-5H8V5h2V4H8V3h2V1H4v3H3V0 h9l4,4v12H3z M11,1v4h4L11,1z" class="st0"/></g><g><path d="M0,13l7,1V3L0,4V13z" class="st1"/></g><path d="M4,5H2H1v7h1v-2h2c1.1,0,2-0.9,2-2V7C6,5.9,5.1,5,4,5z" class="st2"/><path d="M3.5,9H2V6h1.5C4.3,6,5,6.7,5,7.5v0C5,8.3,4.3,9,3.5,9z" class="st1"/></svg>